# AST/ASF file generated using VICON BodyLanguage
# -----------------------------------------------
:version 1.10
:name VICON
:units
  mass 1.0
  length 0.45
  angle deg
:documentation
   .ast/.asf automatically generated from VICON data using
   VICON BodyBuilder and BodyLanguage model FoxedUp or BRILLIANT.MOD
:root
   order TX TY TZ RX RY RZ
   axis XYZ
   position 0 0 0  
   orientation 0 0 0 
:bonedata
  begin
     id 1 
     name lhipjoint
     direction 0.547975 -0.797114 0.253638 
     length 2.36201 
     axis 0 0 0  XYZ
  end
  begin
     id 2 
     name lfemur
     direction 0.34202 -0.939693 0  
     length 7.69075  
     axis 0 0 20  XYZ
    dof rx ry rz
    limits (-160.0 20.0)
           (-70.0 70.0)
           (-60.0 70.0)
  end
  begin
     id 3 
     name ltibia
     direction 0.34202 -0.939693 0   
     length 7.91399   
     axis 0 0 20   XYZ
    dof rx
    limits (-10.0 170.0)
  end
  begin
     id 4 
     name lfoot
     direction 0.0705293 -0.193778 0.978507   
     length 2.13618   
     axis -90 7.62852e-016 20   XYZ
    dof rx rz
    limits (-45.0 90.0)
           (-70.0 20.0)
  end
  begin
     id 5 
     name ltoes
     direction 1.53592e-011 -4.21925e-011 1   
     length 1.07518   
     axis -90 7.62852e-016 20   XYZ
    dof rx
    limits (-90.0 20.0)
  end
  begin
     id 6 
     name rhipjoint
     direction -0.57 -0.782963 0.249136   
     length 2.4047  
     axis 0 0 0  XYZ 
  end
  begin
     id 7 
     name rfemur
     direction -0.34202 -0.939693 0   
     length 7.51486   
     axis 0 0 -20   XYZ
    dof rx ry rz
    limits (-160.0 20.0)
           (-70.0 70.0)
           (-70.0 60.0)
  end
  begin
     id 8 
     name rtibia
     direction -0.34202 -0.939693 0   
     length 8.08317   
     axis 0 0 -20   XYZ
    dof rx
    limits (-10.0 170.0)
 end
 begin
     id 9 
     name rfoot
     direction -0.104954 -0.281256 0.953876   
     length 2.30343  
     axis -90 -7.62852e-016 -20   XYZ
    dof rx rz
    limits (-45.0 90.0)
           (-20.0 70.0)
  end
  begin
     id 10 
     name rtoes
     direction -1.53556e-011 -4.21922e-011 1   
     length 1.14803   
     axis -90 -7.62852e-016 -20   XYZ
    dof rx
    limits (-90.0 20.0)
  end
  begin
     id 11 
     name lowerback
     direction -0.0152855 0.99353 -0.11254   
     length 2.05311   
     axis 0 0 0   XYZ
    dof rx ry rz
    limits (-20.0 45.0)
           (-30.0 30.0)
           (-30.0 30.0)
  end
  begin
     id 12 
     name upperback
     direction -0.00157509 0.999443 -0.033332   
     length 2.06353   
     axis 0 0 0   XYZ
    dof rx ry rz
    limits (-20.0 45.0)
           (-30.0 30.0)
           (-30.0 30.0)
  end
  begin
     id 13 
     name thorax
     direction 0.00577788 0.999804 0.0189484   
     length 2.08472   
     axis 0 0 0   XYZ
    dof rx ry rz
    limits (-20.0 45.0)
           (-30.0 30.0)
           (-30.0 30.0)
  end
  begin
     id 14 
     name lowerneck
     direction -1.09301e-005 0.994719 0.10264   
     length 1.76249   
     axis 0 0 0   XYZ
    dof rx ry rz
    limits (-20.0 45.0)
           (-30.0 30.0)
           (-30.0 30.0)
  end
  begin
     id 15 
     name upperneck
     direction 0.0495018 0.988526 -0.142706   
     length 1.77897   
     axis 0 0 0   XYZ
    dof rx ry rz
    limits (-20.0 45.0)
           (-30.0 30.0)
           (-30.0 30.0)
  end
  begin
     id 16
     name head
     direction 0.0142736 0.998114 -0.0597101  
     length 1.78934  
     axis 0 0 0   XYZ
    dof rx ry rz
    limits (-20.0 45.0)
           (-30.0 30.0)
           (-30.0 30.0)
  end
  begin
     id 17 
     name lclavicle
     direction 0.918111 0.396107 -0.0130883  
     length 3.37276  
     axis 0 0 0   XYZ
    dof ry rz
    limits (-20.0 10.0)
           (0.0 20.0)
  end
  begin
     id 18 
     name lhumerus
     direction 1 -4.48975e-011 -3.26108e-027   
     length 5.34298   
     axis 180 -30 -90   XYZ
    dof rx ry rz
    limits (-60.0 90.0)
           (-90.0 90.0)
           (-90.0 90.0)
  end
  begin
     id 19
     name lradius
     direction 1 -4.48964e-011 -8.84413e-028   
     length 3.67262   
     axis 180 -30 -90   XYZ
    dof rx
    limits (-10.0 170.0)
  end
  begin
     id 20
     name lwrist
     direction 1 -4.48991e-011 -1.24264e-027   
     length 1.83631   
     axis -2.17013e-015 90 90   XYZ
    dof ry
    limits (-180.0 0.0)
 end
  begin
     id 21 
     name lhand
     direction 1 -4.48855e-011 -2.48528e-027   
     length 0.599298   
     axis 1.58582e-015 90 90   XYZ
    dof rx rz
    limits (-90.0 90.0)
           (-45.0 45.0)
  end
  begin
     id 22 
     name lfingers
     direction 1 -4.48811e-011 -4.97056e-027   
     length 0.48317   
     axis 3.17164e-015 90 90   XYZ
    dof rx
    limits (0.0 90.0)
  end
  begin
     id 23
     name lthumb
     direction 0.707107 -6.34882e-011 0.707107   
     length 0.693738   
     axis -90 45 2.85299e-015   XYZ
    dof rx rz
    limits (-45.0 45.0)
           (-45.0 45.0)
  end
  begin
     id 24 
     name rclavicle
     direction -0.920511 0.384752 -0.0680135   
     length 3.43787  
     axis 0 0 0   XYZ 
    dof ry rz
    limits (-10.0 20.0)
           (-20.0 0.0)
  end
  begin
     id 25 
     name rhumerus
     direction -0.999976 -0.00330524 0.00603274  
     length 5.5498   
     axis 180 30 90   XYZ
    dof rx ry rz
    limits (-90.0 60.0)
           (-90.0 90.0)
           (-90.0 90.0)
  end
  begin
     id 26 
     name rradius
     direction -1 -4.48967e-011 8.62438e-027   
     length 3.69401   
     axis 180 30 90   XYZ
    dof rx
    limits (-10.0 170.0)
  end
  begin
     id 27 
     name rwrist
     direction -1 -4.4897e-011 9.54866e-027   
     length 1.84701   
     axis -7.69462e-015 -90 -90   XYZ
    dof ry
    limits (-180.0 0.0)
  end
  begin
     id 28
     name rhand
     direction -1 -4.48982e-011 1.90973e-026   
     length 0.638113   
     axis -1.21857e-014 -90 -90   XYZ
    dof rx rz
    limits (-90.0 90.0)
           (-45.0 45.0)
  end
  begin
     id 29
     name rfingers
     direction -1 -4.48936e-011 3.81946e-026   
     length 0.514463   
     axis -2.43714e-014 -90 -90   XYZ
    dof rx
    limits (0.0 90.0)
  end
  begin
     id 30
     name rthumb
     direction -0.707107 -6.34942e-011 0.707107   
     length 0.738669   
     axis -90 -45 -2.85299e-015   XYZ
    dof rx rz
    limits (-45.0 45.0)
           (-45.0 45.0)
  end
:hierarchy
  begin
    root lhipjoint rhipjoint lowerback
    lhipjoint lfemur
    lfemur ltibia
    ltibia lfoot
    lfoot ltoes
    rhipjoint rfemur
    rfemur rtibia
    rtibia rfoot
    rfoot rtoes
    lowerback upperback
    upperback thorax
    thorax lowerneck lclavicle rclavicle
    lowerneck upperneck
    upperneck head
    lclavicle lhumerus
    lhumerus lradius
    lradius lwrist
    lwrist lhand lthumb
    lhand lfingers
    rclavicle rhumerus
    rhumerus rradius
    rradius rwrist
    rwrist rhand rthumb
    rhand rfingers
  end

#!OML:ASF F:\twosubjects\two\Thursday\Session 1\Rory.ASF
:FULLY-SPECIFIED
:DEGREES
130
root 16.7225 18.2799 -4.99993 -173.709 0.138546 169.978
lowerback -0.95685 -3.12636 -13.3536
upperback 0.137339 -4.24955 -2.17101
thorax 1.4597 -2.31751 5.04683
lowerneck -8.81684 -2.2793 -4.14159
upperneck 0.0458944 -2.44119 14.8263
head 1.73986 -0.594329 5.07825
rclavicle 5.65542e-014 4.09496e-014
rhumerus -50.8271 -25.125 -64.1958
rradius 17.7569
rwrist 35.2169
rhand -16.2615 23.9021
rfingers 7.12502
rthumb 9.94784 -5.84285
lclavicle 5.65542e-014 4.09496e-014
lhumerus 17.9785 21.7787 71.237
lradius 64.5223
lwrist 53.8316
lhand 8.55976 28.7781
lfingers 7.12502
lthumb 33.7591 55.615
rfemur -31.6799 7.26621 6.24604
rtibia 24.3936
rfoot -9.72676 -14.0003
rtoes -10.2027
lfemur 16.2292 -0.31935 -29.1751
ltibia 9.63245
lfoot -0.73785 -0.960439
ltoes -24.0462
131
root 16.7641 18.2649 -5.21786 -173.774 -0.0273043 169.959
lowerback -1.00815 -3.14408 -13.2142
upperback -0.081223 -4.28659 -2.19395
thorax 1.25198 -2.31364 4.9514
lowerneck -8.67687 -2.23206 -4.31312
upperneck 0.558023 -2.44168 14.9695
head 1.87173 -0.584536 5.15288
rclavicle 2.0276e-014 6.91771e-014
rhumerus -51.5599 -25.634 -63.3184
rradius 17.5391
rwrist 35.5843
rhand -15.99 24.7279
rfingers 7.12502
rthumb 10.2098 -5.00434
lclavicle 2.0276e-014 6.91771e-014
lhumerus 17.0212 21.4038 70.4172
lradius 63.8311
lwrist 53.1532
lhand 8.66989 27.1198
lfingers 7.12502
lthumb 33.8637 53.9337
rfemur -31.2323 7.15895 6.60281
rtibia 24.928
rfoot -8.11086 -14.0027
rtoes -10.1094
lfemur 16.6836 -0.434802 -28.9995
ltibia 10.0197
lfoot 0.280219 -1.11065
ltoes -23.5959
132
root 16.8056 18.281 -5.43042 -173.646 -0.447789 169.784
lowerback -1.1467 -3.20235 -13.2442
upperback -0.304132 -4.36974 -2.25354
thorax 1.10565 -2.34044 4.90163
lowerneck -8.38686 -2.19833 -4.26666
upperneck 0.683344 -2.42238 14.9581
head 1.85728 -0.584368 5.14276
rclavicle -5.13113e-015 1.09332e-014
rhumerus -52.2939 -26.2392 -62.4298
rradius 17.2973
rwrist 36.1093
rhand -16.2131 24.1613
rfingers 7.12502
rthumb 9.99459 -5.58144
lclavicle -5.13113e-015 1.09332e-014
lhumerus 16.2776 20.887 69.8613
lradius 62.9906
lwrist 52.276
lhand 8.85966 26.5419
lfingers 7.12502
lthumb 34.044 53.3159
rfemur -31.0212 6.93837 6.62241
rtibia 25.4127
rfoot -5.9774 -14.2069
rtoes -6.21876
lfemur 16.9051 -0.872165 -28.9541
ltibia 10.3663
lfoot 1.71432 -1.13978
ltoes -22.4032
133
root 16.8476 18.2828 -5.64225 -173.478 -0.872445 169.614
lowerback -1.39426 -3.24766 -13.2439
upperback -0.451217 -4.40917 -2.30114
thorax 1.09203 -2.35564 4.83949
lowerneck -8.45437 -2.28061 -4.202
upperneck 0.894197 -2.57155 14.8384
head 1.94144 -0.654407 5.08784
rclavicle 1.11816e-016 1.19271e-014
rhumerus -52.9992 -26.9451 -61.3595
rradius 17.1275
rwrist 36.9843
rhand -16.1762 22.8933
rfingers 7.12502
rthumb 10.0302 -6.84768
lclavicle 1.11816e-016 1.19271e-014
lhumerus 15.3754 20.1705 69.2824
lradius 62.325
lwrist 51.8033
lhand 8.56088 25.8657
lfingers 7.12502
lthumb 33.7601 52.7024
rfemur -30.909 6.60168 6.64699
rtibia 25.8791
rfoot -3.81274 -13.9786
rtoes -5.52322
lfemur 16.8541 -1.34338 -28.9485
ltibia 11.0965
lfoot 2.97959 -0.94241
ltoes -21.4275
134
root 16.8878 18.2786 -5.86462 -173.573 -1.1115 169.944
lowerback -1.68591 -3.25801 -12.844
upperback -0.380092 -4.35106 -2.15876
thorax 1.30676 -2.33069 4.75172
lowerneck -8.94446 -2.39828 -4.27409
upperneck 1.38209 -2.79183 14.7372
head 2.18626 -0.735742 5.05817
rclavicle -1.47101e-014 -8.94531e-015
rhumerus -53.0852 -27.0329 -61.1184
rradius 17.0825
rwrist 36.9201
rhand -15.8311 23.7115
rfingers 7.12502
rthumb 10.363 -6.01316
lclavicle -1.47101e-014 -8.94531e-015
lhumerus 14.5044 19.6091 68.7693
lradius 61.6507
lwrist 51.6786
lhand 8.12011 24.5558
lfingers 7.12502
lthumb 33.3412 51.4834
rfemur -30.5418 6.89707 7.1674
rtibia 26.336
rfoot -2.50205 -13.6877
rtoes -5.1544
lfemur 16.7405 -1.59312 -28.4668
ltibia 12.4543
lfoot 4.00869 -0.798421
ltoes -21.5819
135
root 16.9227 18.2817 -6.08217 -173.804 -1.2515 170.774
lowerback -1.8459 -3.24117 -11.9529
upperback -0.267273 -4.26777 -1.88912
thorax 1.46402 -2.28015 4.53735
lowerneck -9.20132 -2.34451 -4.16919
upperneck 1.67223 -2.76676 14.5193
head 2.30516 -0.714529 4.97411
rclavicle 8.93289e-015 5.37713e-014
rhumerus -53.1504 -27.5005 -60.6089
rradius 16.9076
rwrist 37.3244
rhand -15.9999 24.5036
rfingers 7.12502
rthumb 10.2003 -5.22908
lclavicle 8.93289e-015 5.37713e-014
lhumerus 13.7756 19.1428 68.3131
lradius 60.6995
lwrist 51.8085
lhand 8.43088 24.3203
lfingers 7.12502
lthumb 33.6366 51.184
rfemur -30.0842 7.323 8.27676
rtibia 26.9607
rfoot -1.84296 -13.8468
rtoes -2.88705
lfemur 16.3416 -1.71316 -27.4762
ltibia 14.5443
lfoot 5.03976 -0.729026
ltoes -21.0361
136
root 16.9583 18.2909 -6.29033 -174.007 -1.45173 171.781
lowerback -1.81927 -3.21887 -10.8241
upperback -0.263798 -4.22125 -1.58953
thorax 1.39258 -2.22981 4.23621
lowerneck -9.18388 -2.23849 -3.94427
upperneck 1.71384 -2.65002 14.2318
head 2.29375 -0.668111 4.8526
rclavicle 1.46479e-014 7.85199e-015
rhumerus -53.6785 -28.6925 -59.1082
rradius 16.5294
rwrist 38.9183
rhand -16.377 24.8256
rfingers 7.12502
rthumb 9.83641 -4.92461
lclavicle 1.46479e-014 7.85199e-015
lhumerus 12.8355 18.3956 67.8514
lradius 59.7344
lwrist 52.1293
lhand 9.00573 25.116
lfingers 7.12502
lthumb 34.1827 51.859
rfemur -29.4728 6.77636 9.94815
rtibia 27.6583
rfoot -1.49859 -13.6478
rtoes -2.37549
lfemur 15.5892 -1.8301 -26.2738
ltibia 17.0682
lfoot 6.28516 -0.396309
ltoes -19.3545
137
root 16.9982 18.2921 -6.49583 -174.276 -1.58573 172.851
lowerback -1.75933 -3.18743 -9.69563
upperback -0.198048 -4.16331 -1.23031
thorax 1.37056 -2.17906 3.99384
lowerneck -9.31124 -2.23666 -3.8093
upperneck 1.79867 -2.67426 13.9409
head 2.33377 -0.687234 4.73804
rclavicle -1.37969e-014 3.4837e-014
rhumerus -54.0239 -29.727 -57.7235
rradius 16.132
rwrist 40.3168
rhand -16.6067 25.0818
rfingers 7.12502
rthumb 9.61482 -4.67881
lclavicle -1.37969e-014 3.4837e-014
lhumerus 11.8937 17.6874 67.5534
lradius 58.6602
lwrist 52.4896
lhand 9.28773 25.1759
lfingers 7.12502
lthumb 34.4505 51.8585
rfemur -28.7019 5.49593 11.9322
rtibia 28.3891
rfoot -2.02632 -12.2616
rtoes -2.19848
lfemur 14.6513 -1.94367 -25.003
ltibia 20
lfoot 7.65973 0.356655
ltoes -15.0062
138
root 17.0302 18.286 -6.6901 -174.551 -1.48455 173.712
lowerback -1.64697 -3.10375 -8.78808
upperback -0.084635 -4.0447 -0.899631
thorax 1.37324 -2.10584 3.84486
lowerneck -9.70291 -2.23589 -3.66257
upperneck 1.98576 -2.71394 13.4883
head 2.44519 -0.710743 4.57053
rclavicle -3.30076e-014 -4.05024e-015
rhumerus -54.0782 -30.7323 -56.5068
rradius 15.6661
rwrist 41.8488
rhand -16.7489 24.5373
rfingers 7.12502
rthumb 9.47762 -5.2296
lclavicle -3.30076e-014 -4.05024e-015
lhumerus 10.9059 17.0505 67.2122
lradius 57.4796
lwrist 53.1864
lhand 9.17376 24.7941
lfingers 7.12502
lthumb 34.3423 51.5012
rfemur -28.1682 4.23465 13.522
rtibia 29.2789
rfoot -3.11277 -10.1916
rtoes -1.32421
lfemur 12.8981 -1.81427 -23.9815
ltibia 24.4235
lfoot 8.81276 1.01598
ltoes -9.74963
139
root 17.0509 18.2816 -6.87208 -174.711 -1.45834 174.416
lowerback -1.45751 -3.01268 -7.90155
upperback -0.0731754 -3.93683 -0.642434
thorax 1.22474 -2.03317 3.63673
lowerneck -9.96578 -2.19821 -3.48696
upperneck 2.02796 -2.68623 13.0296
head 2.48597 -0.70983 4.39991
rclavicle -8.28295e-015 -1.74185e-014
rhumerus -54.1966 -31.6454 -55.3578
rradius 15.2878
rwrist 43.1547
rhand -16.3157 24.2151
rfingers 7.12502
rthumb 9.89557 -5.5323
lclavicle -8.28295e-015 -1.74185e-014
lhumerus 9.69341 16.0028 66.7671
lradius 56.2869
lwrist 54.3947
lhand 9.88747 23.6301
lfingers 7.12502
lthumb 35.0196 50.1815
rfemur -27.7995 3.16644 14.7201
rtibia 30.1631
rfoot -4.1185 -8.73369
rtoes -2.60806
lfemur 11.5763 -1.3426 -23.1133
ltibia 27.1154
lfoot 11.5839 0.552223
ltoes -11.9871
140
root 17.0741 18.2526 -7.04665 -174.885 -1.59859 175.004
lowerback -1.23437 -2.93283 -7.15962
upperback -0.0776223 -3.84812 -0.446749
thorax 1.04981 -1.9733 3.44448
lowerneck -9.83324 -2.15064 -3.1971
upperneck 1.7952 -2.62169 12.6745
head 2.37826 -0.703057 4.2446
rclavicle -2.39846e-014 -4.42296e-015
rhumerus -54.3944 -32.4312 -54.2946
rradius 14.9967
rwrist 43.8907
rhand -16.3256 24.37
rfingers 7.12502
rthumb 9.886 -5.37793
lclavicle -2.39846e-014 -4.42296e-015
lhumerus 8.55388 15.7992 67.3288
lradius 55.7406
lwrist 54.6689
lhand 12.0014 41.2236
lfingers 7.12502
lthumb 37.0221 67.2823
rfemur -27.2584 1.9321 15.7919
rtibia 30.7703
rfoot -4.91691 -7.80164
rtoes -4.86094
lfemur 13.027 2.76668 -21.9528
ltibia 30.5491
lfoot 5.31823 -10.1171
ltoes -52.5762
